HIERARCHY
ROOT Hips
{
  OFFSET 0 0 0
  CHANNELS 6 Xposition Yposition Zposition Zrotation Yrotation Xrotation
  JOINT LeftThigh
  {
    OFFSET 8.409438 0 -5.917753
    CHANNELS 3 Zrotation Yrotation Xrotation
    JOINT LeftLeg
    {
      OFFSET 0 0 -42.358652
      CHANNELS 3 Zrotation Yrotation Xrotation
      JOINT LeftFoot
      {
        OFFSET 0 0 -39.357303
        CHANNELS 3 Zrotation Yrotation Xrotation
      }
    }
  }
  JOINT RightThigh
  {
    OFFSET -8.409438 0 -5.917753
    CHANNELS 3 Zrotation Yrotation Xrotation
    JOINT RightLeg
    {
      OFFSET 0 0 -42.358652
      CHANNELS 3 Zrotation Yrotation Xrotation
      JOINT RightFoot
      {
        OFFSET 0 0 -39.357303
        CHANNELS 3 Zrotation Yrotation Xrotation
      }
    }
  }
  JOINT SpineLow
  {
    OFFSET 0 0 4.719101
    CHANNELS 3 Zrotation Yrotation Xrotation
    JOINT SpineMid
    {
      OFFSET 0 0 12.899191
      CHANNELS 3 Zrotation Yrotation Xrotation
      JOINT Chest
      {
        OFFSET 0 0 12.899191
        CHANNELS 3 Zrotation Yrotation Xrotation
        JOINT LeftShoulder
        {
          OFFSET 7.550562 1.41573 9.438202
          CHANNELS 3 Zrotation Yrotation Xrotation
          JOINT LeftArm
          {
            OFFSET 9.155056 0 4.247191
            CHANNELS 3 Zrotation Yrotation Xrotation
            JOINT LeftForearm
            {
              OFFSET 0 0 25.771955
              CHANNELS 3 Zrotation Yrotation Xrotation
              JOINT LeftHand
              {
                OFFSET 0 0 25.197169
                CHANNELS 3 Zrotation Yrotation Xrotation
              }
            }
          }
        }
        JOINT RightShoulder
        {
          OFFSET -7.550562 1.41573 9.438202
          CHANNELS 3 Zrotation Yrotation Xrotation
          JOINT RightArm
          {
            OFFSET -9.155056 0 4.247191
            CHANNELS 3 Zrotation Yrotation Xrotation
            JOINT RightForearm
            {
              OFFSET 0 0 -25.771955
              CHANNELS 3 Zrotation Yrotation Xrotation
              JOINT RightHand
              {
                OFFSET 0 0 -25.197169
                CHANNELS 3 Zrotation Yrotation Xrotation
              }
            }
          }
        }
        JOINT Neck
        {
          OFFSET 0 0 15.101124
          CHANNELS 3 Zrotation Yrotation Xrotation
          JOINT Head
          {
            OFFSET 0 0 11.325843
            CHANNELS 3 Zrotation Yrotation Xrotation
            End Site
            {
              OFFSET 0 0 14.157303
            }
          }
        }
      }
    }
  }
}
MOTION
Frames: 13
Frame Time: 0.0
0.0  89.887642  0.0  3.214111  25.909826  -89.368054  30.928029  -51.868777  -19.528361  -11.034855  58.603312  36.826173  4.712985  -2.898165  -0.259664  -24.376056  7.469357  -46.222423  -0.368737  16.09183  48.97239  -3.0802  0.339868  -0.666385  -1.430807  -0.221915  0.858323  -3.918363  -0.555487  2.358375  -3.918363  -0.555487  2.358375  -0.928842  15.45491  5.31212  119.529131  45.253634  -150.030427  -28.670328  -15.126764  70.86678  59.043666  51.675765  -43.906121  2.945492  2.28902  16.796872  29.854418  62.002672  1.002779  -19.495127  -8.243868  -81.883556  82.804591  27.511066  -7.350947  -23.955525  2.976197  -3.29383  -17.947207  2.365727  -2.357269  
0.0  89.887642  0.0  3.189531  25.633838  -89.455022  31.479973  -51.85642  -19.437454  -12.055191  58.546519  35.783754  4.854924  -2.810218  -0.153917  -24.453745  7.298899  -46.34937  -0.368037  15.920071  49.199572  -3.121453  0.472108  -0.683722  -1.383001  -0.222499  0.840684  -3.787589  -0.559806  2.309832  -3.787589  -0.559806  2.309832  -1.353281  15.575543  5.550906  119.844599  45.211411  -150.158518  -28.89836  -14.950565  70.740081  59.153716  51.483499  -44.004646  2.675922  2.394495  16.835174  30.869996  62.138682  1.857921  -19.741872  -7.989993  -81.767937  82.701568  27.405796  -7.259715  -24.069737  3.010818  -3.165848  -18.033151  2.387341  -2.259224  
0.0  89.887642  0.0  3.294192  25.344169  -89.440267  32.22601  -51.708901  -19.360666  -13.128546  58.427471  34.745351  5.094278  -2.61831  0.043536  -24.423241  7.196153  -46.521058  -0.211806  15.556867  49.496384  -3.380298  0.613111  -0.720689  -1.352601  -0.201865  0.7854  -3.703374  -0.5076  2.157367  -3.703374  -0.5076  2.157367  -1.823  15.652666  5.826855  120.213647  45.041664  -150.226356  -29.180803  -14.927339  70.587681  59.212931  51.330704  -44.257137  2.26332  2.473538  16.917475  33.018029  62.239178  3.573335  -20.129928  -7.772442  -81.668023  82.627037  27.33598  -7.134664  -24.064669  3.150949  -2.941774  -18.029301  2.483749  -2.085324  
0.0  89.887642  0.0  3.371646  24.73035  -89.537605  33.402551  -51.683115  -19.239452  -14.43091  58.320642  33.515745  5.144847  -2.532497  0.205455  -23.980981  7.14377  -46.582368  0.021682  15.097688  49.848403  -3.581538  0.677741  -0.740117  -1.220889  -0.18101  0.745885  -3.342445  -0.456929  2.047372  -3.342445  -0.456929  2.047372  -2.503753  15.675297  6.136531  120.616302  44.882571  -150.357499  -29.51127  -14.799429  70.693078  59.182756  51.219349  -44.656712  1.648268  2.517189  16.906753  35.304526  62.209075  5.572015  -20.533123  -7.562784  -81.531114  82.492873  27.359513  -7.073046  -24.299258  3.229199  -2.681942  -18.205879  2.533402  -1.885837  
0.0  89.887642  0.0  3.414142  24.056751  -89.551641  34.681267  -51.673334  -19.196859  -15.73151  58.139385  32.181874  5.225657  -2.317602  0.447565  -23.589298  7.04856  -46.756698  0.313772  14.59541  50.247414  -3.657975  0.668451  -0.775684  -1.105052  -0.142922  0.692292  -3.024382  -0.358906  1.898402  -3.024382  -0.358906  1.898402  -3.278789  15.534504  6.305951  121.328859  44.685767  -150.475374  -29.988584  -14.555919  70.986809  59.174469  51.166789  -45.077283  1.127039  2.336959  16.768423  39.993716  62.026945  9.501029  -21.783472  -7.349548  -81.138509  82.245622  27.467263  -7.011422  -24.374167  3.280102  -2.372934  -18.263233  2.559644  -1.65127  
0.0  89.887642  0.0  3.45703  23.126236  -89.584585  36.037737  -51.706556  -19.01959  -16.85845  57.945606  30.974299  5.205242  -2.208953  0.626996  -22.881368  6.892799  -46.873966  0.392256  14.472446  50.598106  -3.437429  0.530039  -0.881742  -0.948274  -0.104605  0.657483  -2.594647  -0.260078  1.800957  -2.594647  -0.260078  1.800956  -4.143371  15.449927  6.347534  122.122418  44.573152  -150.595497  -30.487234  -14.14381  71.49759  59.368484  51.149147  -45.458492  0.433409  1.96666  16.27681  44.922036  61.661042  13.9092  -22.591878  -7.265992  -80.96277  81.832262  27.517482  -6.96286  -24.518847  3.235295  -2.112067  -18.373337  2.516097  -1.456373  
0.0  89.887642  0.0  3.494032  22.212629  -89.52018  37.117332  -51.719845  -18.73133  -18.086409  57.711669  29.512102  5.432683  -1.974068  0.8634  -22.298341  6.573461  -47.176134  0.362309  14.690965  51.026187  -2.842599  0.004452  -0.967213  -0.854144  -0.05446  0.599866  -2.335905  -0.127646  1.641365  -2.335905  -0.127646  1.641365  -4.820044  15.272984  6.217749  123.111249  44.427736  -150.687289  -30.961334  -13.647357  72.194468  60.009888  51.156954  -45.614239  0.176091  1.409492  15.843214  50.794884  61.043944  19.260258  -23.550872  -7.426055  -80.845793  81.306506  27.443922  -6.964141  -24.432292  3.154642  -1.819308  -18.310394  2.443416  -1.240145  
0.0  89.887642  0.0  3.63123  21.241317  -89.387929  37.797921  -51.629067  -18.089337  -18.782399  57.306971  28.45685  5.417892  -1.883891  1.014127  -21.774407  6.249364  -47.714051  0.020709  15.211262  51.607955  -2.46218  -0.258558  -1.078302  -0.779029  0.0088  0.556915  -2.129067  0.041985  1.521807  -2.129067  0.041985  1.521807  -5.565656  15.0108  5.76491  124.295609  44.197865  -150.587303  -31.272361  -13.281507  73.094951  60.921639  51.173668  -45.589683  -0.332289  0.919834  15.213806  57.098205  59.962096  24.843646  -24.194759  -7.753398  -81.058351  80.738464  27.232925  -6.959001  -24.282323  3.001214  -1.62149  -18.199772  2.319742  -1.098447  
0.0  89.887642  0.0  3.789339  20.088144  -89.24203  38.077995  -51.50397  -17.062536  -19.273293  56.753984  27.379685  5.492745  -1.728484  1.219603  -21.26249  5.908505  -48.434793  -0.216395  15.676204  52.515114  -1.647291  -0.274058  -1.13558  -0.895819  0.133484  0.470922  -2.445949  0.382233  1.282084  -2.44595  0.382233  1.282084  -4.952561  14.341697  5.645121  125.429851  44.018056  -150.235787  -31.629631  -13.210576  74.271805  61.987242  51.28442  -45.407235  0.372914  0.296367  14.95138  62.387097  58.438314  29.593729  -24.224102  -8.095881  -81.81657  80.231819  26.961309  -6.982991  -23.306814  2.749375  -1.235862  -17.471282  2.112847  -0.82313  
0.0  89.887642  0.0  4.07507  18.902278  -89.110483  37.78466  -51.216435  -15.543569  -19.529476  56.02519  26.40288  5.544422  -1.622668  1.440069  -20.734958  5.520951  -49.172923  -0.519798  16.6929  53.35512  -1.600575  -0.369307  -1.207137  -0.891285  0.225145  0.45693  -2.431953  0.632127  1.240515  -2.431953  0.632127  1.240514  -5.378491  13.824582  5.145834  126.569704  44.1069  -149.627644  -32.09807  -13.283268  75.715544  63.348364  51.554645  -44.933631  0.059088  0.229469  14.233505  66.876113  56.366996  33.505021  -23.929438  -8.340962  -82.973376  79.923382  26.718096  -7.218996  -22.816396  2.467079  -1.16961  -17.105009  1.897148  -0.786143  
0.0  89.887642  0.0  4.349744  17.631174  -88.99239  37.12886  -50.838361  -13.766034  -19.579832  55.164523  25.523105  5.64907  -1.497947  1.65231  -20.227562  4.907523  -49.824769  -0.671353  17.942116  54.102097  -1.316523  -0.524995  -1.206234  -0.901996  0.310639  0.435883  -2.459956  0.865188  1.17973  -2.459956  0.865188  1.17973  -5.843811  13.359633  4.708445  127.765174  44.489188  -148.803111  -32.595433  -13.543321  77.406506  65.208112  52.161892  -44.017541  -0.223906  0.290566  13.654169  70.88919  53.956672  36.839113  -23.644965  -8.463418  -84.32457  79.863412  26.575259  -7.737241  -22.220085  2.199533  -1.100781  -16.659122  1.692358  -0.746589  
0.0  89.887642  0.0  4.627143  16.374536  -88.936476  36.189497  -50.367178  -11.764046  -19.342596  54.102221  24.850146  5.754402  -1.411502  1.910473  -19.820294  4.16971  -50.251988  -0.602049  18.928075  54.78343  -1.162034  -0.597698  -1.261009  -0.932056  0.379133  0.408629  -2.541389  1.051859  1.102231  -2.541389  1.051859  1.102231  -6.257495  13.097248  4.290341  128.904609  45.240802  -147.672332  -32.890994  -14.058085  79.154478  67.497468  53.220543  -42.704168  -0.585116  0.495502  13.206165  74.49349  51.224366  39.659243  -23.43405  -8.363378  -85.761461  80.011195  26.663636  -8.372886  -21.564593  2.013011  -1.010293  -16.168507  1.54772  -0.687552  
0.0  89.887642  0.0  4.855865  15.093034  -88.96347  35.141277  -49.856681  -9.688513  -18.885262  52.848954  24.369251  5.77303  -1.272485  2.238057  -19.428438  3.373663  -50.428017  -0.312029  19.515508  55.418387  -1.291207  -0.610967  -1.378659  -0.955752  0.421573  0.368234  -2.606212  1.166641  0.989784  -2.606212  1.166641  0.989784  -6.79378  13.071368  3.966104  130.116707  46.556691  -146.205294  -32.999468  -14.812262  80.896606  70.183674  54.888446  -40.941195  -1.152391  0.99794  13.001605  77.444845  48.212349  41.721618  -23.333464  -7.953016  -87.25549  80.278185  27.090734  -8.98088  -20.877357  1.971203  -0.859875  -15.653738  1.509887  -0.578237  
